<svg width="587" height="257" viewBox="0 0 587 257" fill="none" xmlns="http://www.w3.org/2000/svg">
<g clip-path="url(#clip0_1391_2)">
<g filter="url(#filter0_f_1391_2)">
<circle cx="104" cy="97" r="72" fill="#1292EE" fill-opacity="0.09"/>
</g>
<g filter="url(#filter1_f_1391_2)">
<circle cx="218" cy="176" r="56" fill="#1292EE" fill-opacity="0.09"/>
</g>
<g filter="url(#filter2_f_1391_2)">
<circle cx="320" cy="135" r="113" fill="#12EEE7" fill-opacity="0.06"/>
</g>
<circle cx="293" cy="128" r="99.5" stroke="#22CEEE" stroke-opacity="0.06" stroke-linecap="round" stroke-dasharray="11 11"/>
<circle cx="293" cy="128" r="64.5" stroke="#1292EE" stroke-opacity="0.14" stroke-linecap="round" stroke-dasharray="11 11"/>
<path d="M270 117H278C279.061 117 280.078 116.579 280.828 115.828C281.579 115.078 282 114.061 282 113V105C282 103.939 281.579 102.922 280.828 102.172C280.078 101.421 279.061 101 278 101H270C268.939 101 267.922 101.421 267.172 102.172C266.421 102.922 266 103.939 266 105V113C266 114.061 266.421 115.078 267.172 115.828C267.922 116.579 268.939 117 270 117ZM270 105H278V113H270V105ZM318 141H310C308.939 141 307.922 141.421 307.172 142.172C306.421 142.922 306 143.939 306 145V153C306 154.061 306.421 155.078 307.172 155.828C307.922 156.579 308.939 157 310 157H318C319.061 157 320.078 156.579 320.828 155.828C321.579 155.078 322 154.061 322 153V145C322 143.939 321.579 142.922 320.828 142.172C320.078 141.421 319.061 141 318 141ZM318 153H310V145H318V153ZM304.828 122.172L302 125L314 137L326 125L323.172 122.172L316 129.344V111C316 109.939 315.579 108.922 314.828 108.172C314.078 107.421 313.061 107 312 107H286V111H312V129.344L304.828 122.172ZM276 128.656L283.172 135.828L286 133L274 121L262 133L264.828 135.828L272 128.656V147C272 148.061 272.421 149.078 273.172 149.828C273.922 150.579 274.939 151 276 151H302V147H276V128.656Z" fill="url(#paint0_linear_1391_2)"/>
<path d="M225.121 55.48C228.81 53.7016 236.682 52.0312 245.545 57.8056C245.677 57.8917 245.825 57.9509 245.98 57.9798C246.134 58.0088 246.294 58.0069 246.448 57.9744C246.602 57.9418 246.748 57.8793 246.878 57.7902C247.008 57.7011 247.12 57.5873 247.206 57.4552C247.292 57.3232 247.351 57.1755 247.38 57.0205C247.409 56.8656 247.407 56.7065 247.374 56.5523C247.342 56.398 247.279 56.2517 247.19 56.1217C247.101 55.9917 246.987 55.8805 246.855 55.7944C237.166 49.4824 228.382 51.2416 224.079 53.32C223.931 53.3843 223.797 53.4779 223.686 53.5952C223.574 53.7124 223.488 53.851 223.432 54.0025C223.375 54.1541 223.35 54.3154 223.357 54.4769C223.365 54.6384 223.405 54.7968 223.475 54.9424C223.546 55.088 223.644 55.218 223.766 55.3244C223.888 55.4308 224.03 55.5116 224.183 55.5618C224.337 55.612 224.499 55.6307 224.661 55.6166C224.822 55.6026 224.978 55.5561 225.121 55.48ZM220.782 57.0184C220.868 57.1501 220.928 57.2977 220.958 57.4526C220.988 57.6075 220.987 57.7667 220.955 57.9212C220.923 58.0756 220.861 58.2223 220.772 58.3528C220.684 58.4833 220.57 58.595 220.438 58.6816C219.183 59.5072 217.774 61.2856 217.234 62.2072C217.068 62.4713 216.806 62.6604 216.503 62.7344C216.2 62.8084 215.88 62.7614 215.611 62.6035C215.342 62.4456 215.145 62.1891 215.062 61.8884C214.979 61.5878 215.016 61.2665 215.166 60.9928C215.814 59.8888 217.446 57.7768 219.121 56.6752C219.387 56.5007 219.711 56.4388 220.022 56.5032C220.334 56.5675 220.607 56.7529 220.782 57.0184ZM234.2 56.8984C233.882 56.8984 233.577 57.0249 233.351 57.2499C233.126 57.4749 233 57.7802 233 58.0984C233 58.4167 233.126 58.7219 233.351 58.947C233.577 59.172 233.882 59.2984 234.2 59.2984C238.174 59.2984 247.434 62.6008 249.824 75.0256C249.896 75.3253 250.082 75.5856 250.341 75.7525C250.6 75.9194 250.913 75.9801 251.216 75.9221C251.519 75.8641 251.788 75.6917 251.967 75.4408C252.146 75.1899 252.222 74.8797 252.178 74.5744C249.543 60.8656 239.163 56.8984 234.202 56.8984M231.43 71.9248C229.342 73.6192 227.766 78.3688 232.77 87.4192C232.924 87.698 232.961 88.0266 232.872 88.3326C232.784 88.6387 232.578 88.8972 232.299 89.0512C232.02 89.2053 231.692 89.2422 231.386 89.154C231.08 89.0658 230.821 88.8596 230.667 88.5808C225.512 79.2544 226.4 72.9184 229.916 70.0624C233.334 67.2856 238.724 68.4904 240.195 73.24C240.39 73.8712 240.546 74.6272 240.699 75.3832L240.778 75.76C240.97 76.672 241.182 77.6224 241.494 78.58C242.115 80.4832 243.116 82.3528 245.048 83.7784C245.304 83.9675 245.475 84.2505 245.522 84.5654C245.57 84.8802 245.49 85.201 245.301 85.4572C245.112 85.7134 244.829 85.884 244.514 85.9315C244.199 85.979 243.879 85.8995 243.622 85.7104C241.158 83.8912 239.929 81.52 239.211 79.3264C238.894 78.316 238.633 77.2888 238.429 76.2496L238.347 75.8488C238.227 75.2088 238.078 74.5746 237.901 73.948C236.967 70.9312 233.614 70.1488 231.43 71.9248ZM246.2 74.7328C246.196 74.5721 246.16 74.4139 246.094 74.2674C246.028 74.1209 245.933 73.9892 245.815 73.8801C245.697 73.7711 245.558 73.6868 245.407 73.6324C245.255 73.5779 245.095 73.5545 244.934 73.5633C244.774 73.5721 244.617 73.6131 244.472 73.6839C244.328 73.7546 244.199 73.8536 244.094 73.975C243.989 74.0964 243.909 74.2377 243.859 74.3905C243.809 74.5434 243.791 74.7047 243.805 74.8648C244.04 79.204 246.723 81.4552 248.235 81.9424C248.537 82.037 248.865 82.0083 249.146 81.8625C249.427 81.7168 249.639 81.4658 249.736 81.1644C249.833 80.8629 249.807 80.5354 249.663 80.2532C249.52 79.9709 249.27 79.7569 248.97 79.6576C248.425 79.4824 246.385 78.1 246.2 74.7328ZM235.4 76C235.4 75.6818 235.274 75.3765 235.049 75.1515C234.823 74.9264 234.518 74.8 234.2 74.8C233.882 74.8 233.577 74.9264 233.351 75.1515C233.126 75.3765 233 75.6818 233 76C233 78.508 233.31 80.4424 234.049 82.3312C234.778 84.1888 235.902 85.9408 237.421 88.0912C237.51 88.2247 237.624 88.3391 237.758 88.4275C237.892 88.5159 238.042 88.5767 238.199 88.6062C238.357 88.6356 238.519 88.6332 238.676 88.5991C238.832 88.5649 238.98 88.4998 239.111 88.4074C239.242 88.315 239.354 88.1973 239.438 88.0612C239.523 87.9252 239.58 87.7735 239.605 87.6151C239.63 87.4568 239.623 87.295 239.585 87.1394C239.547 86.9837 239.478 86.8373 239.382 86.7088C237.874 84.5728 236.898 83.0248 236.283 81.4528C235.678 79.9144 235.4 78.292 235.4 76ZM228.128 67.096C224.01 70.2832 221.643 77.0368 225.675 85.06C225.818 85.3445 225.843 85.6743 225.743 85.9768C225.643 86.2792 225.427 86.5296 225.142 86.6728C224.858 86.816 224.528 86.8404 224.226 86.7404C223.923 86.6405 223.673 86.4245 223.53 86.14C219.042 77.2072 221.533 69.1672 226.657 65.1976C229.203 63.2272 232.393 62.2792 235.602 62.7976C238.822 63.3208 241.93 65.3032 244.345 68.9344C244.432 69.0657 244.493 69.2129 244.523 69.3676C244.554 69.5222 244.553 69.6814 244.522 69.836C244.491 69.9905 244.43 70.1374 244.342 70.2683C244.254 70.3992 244.141 70.5115 244.01 70.5988C243.879 70.6861 243.732 70.7467 243.577 70.7771C243.422 70.8076 243.263 70.8072 243.108 70.7761C242.954 70.745 242.807 70.6838 242.676 70.5959C242.545 70.5081 242.433 70.3953 242.346 70.264C240.246 67.1032 237.687 65.5696 235.218 65.1688C232.734 64.7656 230.202 65.488 228.128 67.096ZM229.297 59.9056C229.445 59.8517 229.581 59.7692 229.697 59.6627C229.813 59.5562 229.908 59.4279 229.974 59.285C230.041 59.1422 230.079 58.9876 230.086 58.8301C230.092 58.6726 230.068 58.5154 230.014 58.3672C229.961 58.2191 229.878 58.083 229.771 57.9668C229.665 57.8506 229.537 57.7564 229.394 57.6898C229.251 57.6232 229.096 57.5853 228.939 57.5784C228.781 57.5715 228.624 57.5957 228.476 57.6496C217.244 61.7296 214.58 72.496 215.617 79.7704C215.662 80.0855 215.831 80.3697 216.085 80.5606C216.34 80.7514 216.66 80.8332 216.975 80.788C217.29 80.7428 217.575 80.5743 217.765 80.3196C217.956 80.0648 218.038 79.7447 217.993 79.4296C217.054 72.8584 219.486 63.4696 229.297 59.9056Z" fill="url(#paint1_linear_1391_2)"/>
<path d="M374.5 201.875H369.625V168.5C369.625 167.804 369.348 167.136 368.856 166.644C368.364 166.152 367.696 165.875 367 165.875H343C342.304 165.875 341.636 166.152 341.144 166.644C340.652 167.136 340.375 167.804 340.375 168.5V201.875H335.5C335.202 201.875 334.915 201.994 334.705 202.205C334.494 202.415 334.375 202.702 334.375 203C334.375 203.298 334.494 203.585 334.705 203.795C334.915 204.006 335.202 204.125 335.5 204.125H374.5C374.798 204.125 375.085 204.006 375.295 203.795C375.506 203.585 375.625 203.298 375.625 203C375.625 202.702 375.506 202.415 375.295 202.205C375.085 201.994 374.798 201.875 374.5 201.875ZM342.625 168.5C342.625 168.401 342.665 168.305 342.735 168.235C342.805 168.165 342.901 168.125 343 168.125H367C367.099 168.125 367.195 168.165 367.265 168.235C367.335 168.305 367.375 168.401 367.375 168.5V201.875H342.625V168.5ZM362.125 185.75C362.125 186.121 362.015 186.483 361.809 186.792C361.603 187.1 361.31 187.34 360.968 187.482C360.625 187.624 360.248 187.661 359.884 187.589C359.52 187.517 359.186 187.338 358.924 187.076C358.662 186.814 358.483 186.48 358.411 186.116C358.339 185.752 358.376 185.375 358.518 185.032C358.66 184.69 358.9 184.397 359.208 184.191C359.517 183.985 359.879 183.875 360.25 183.875C360.747 183.875 361.224 184.073 361.576 184.424C361.927 184.776 362.125 185.253 362.125 185.75Z" fill="url(#paint2_linear_1391_2)"/>
</g>
<defs>
<filter id="filter0_f_1391_2" x="1" y="-6" width="206" height="206" filterUnits="userSpaceOnUse" color-interpolation-filters="sRGB">
<feFlood flood-opacity="0" result="BackgroundImageFix"/>
<feBlend mode="normal" in="SourceGraphic" in2="BackgroundImageFix" result="shape"/>
<feGaussianBlur stdDeviation="15.5" result="effect1_foregroundBlur_1391_2"/>
</filter>
<filter id="filter1_f_1391_2" x="131" y="89" width="174" height="174" filterUnits="userSpaceOnUse" color-interpolation-filters="sRGB">
<feFlood flood-opacity="0" result="BackgroundImageFix"/>
<feBlend mode="normal" in="SourceGraphic" in2="BackgroundImageFix" result="shape"/>
<feGaussianBlur stdDeviation="15.5" result="effect1_foregroundBlur_1391_2"/>
</filter>
<filter id="filter2_f_1391_2" x="141" y="-44" width="358" height="358" filterUnits="userSpaceOnUse" color-interpolation-filters="sRGB">
<feFlood flood-opacity="0" result="BackgroundImageFix"/>
<feBlend mode="normal" in="SourceGraphic" in2="BackgroundImageFix" result="shape"/>
<feGaussianBlur stdDeviation="33" result="effect1_foregroundBlur_1391_2"/>
</filter>
<linearGradient id="paint0_linear_1391_2" x1="294" y1="101" x2="294" y2="157" gradientUnits="userSpaceOnUse">
<stop stop-color="#2570EC"/>
<stop offset="1" stop-color="#22CEEE"/>
</linearGradient>
<linearGradient id="paint1_linear_1391_2" x1="233.604" y1="51.405" x2="233.604" y2="89.201" gradientUnits="userSpaceOnUse">
<stop stop-color="#22CEEE"/>
<stop offset="1" stop-color="#2570EC"/>
</linearGradient>
<linearGradient id="paint2_linear_1391_2" x1="355" y1="165.875" x2="355" y2="204.125" gradientUnits="userSpaceOnUse">
<stop stop-color="#22CEEE"/>
<stop offset="1" stop-color="#2570EC"/>
</linearGradient>
<clipPath id="clip0_1391_2">
<rect width="587" height="257" fill="white"/>
</clipPath>
</defs>
</svg>
