<svg width="587" height="257" viewBox="0 0 587 257" fill="none" xmlns="http://www.w3.org/2000/svg">
<g clip-path="url(#clip0_1384_46)">
<g filter="url(#filter0_f_1384_46)">
<circle cx="169" cy="128" r="72" fill="#1292EE" fill-opacity="0.09"/>
</g>
<g filter="url(#filter1_f_1384_46)">
<circle cx="410" cy="128" r="72" fill="#1292EE" fill-opacity="0.09"/>
</g>
<g filter="url(#filter2_f_1384_46)">
<circle cx="293" cy="128" r="122" fill="#12EEE7" fill-opacity="0.06"/>
</g>
<circle cx="293" cy="128" r="99.5" stroke="#22CEEE" stroke-opacity="0.06" stroke-linecap="round" stroke-dasharray="11 11"/>
<circle cx="293" cy="128" r="64.5" stroke="#1292EE" stroke-opacity="0.14" stroke-linecap="round" stroke-dasharray="11 11"/>
<path d="M336.643 128C336.643 139.575 332.045 150.676 323.86 158.86C315.676 167.045 304.575 171.643 293 171.643C281.425 171.643 270.324 167.045 262.14 158.86C253.955 150.676 249.357 139.575 249.357 128M336.643 128C336.643 116.425 332.045 105.324 323.86 97.1398C315.676 88.9552 304.575 84.3571 293 84.3571C281.425 84.3571 270.324 88.9552 262.14 97.1398C253.955 105.324 249.357 116.425 249.357 128M336.643 128H249.357" stroke="url(#paint0_linear_1384_46)" stroke-linecap="round" stroke-linejoin="round"/>
<path d="M309.786 128C308.961 143.96 303.083 159.244 293 171.643C282.917 159.244 277.039 143.96 276.214 128C277.039 112.04 282.917 96.7561 293 84.3571C303.083 96.7561 308.961 112.04 309.786 128Z" stroke="url(#paint1_linear_1384_46)" stroke-linecap="round" stroke-linejoin="round"/>
<path d="M395.75 151.5H418.25" stroke="url(#paint2_linear_1384_46)" stroke-width="1.5" stroke-linecap="round" stroke-linejoin="round"/>
<path d="M384.5 140.25V111C384.5 109.807 384.974 108.662 385.818 107.818C386.662 106.974 387.807 106.5 389 106.5H425C426.193 106.5 427.338 106.974 428.182 107.818C429.026 108.662 429.5 109.807 429.5 111V140.25C429.5 141.443 429.026 142.588 428.182 143.432C427.338 144.276 426.193 144.75 425 144.75H389C387.807 144.75 386.662 144.276 385.818 143.432C384.974 142.588 384.5 141.443 384.5 140.25Z" stroke="url(#paint3_linear_1384_46)" stroke-width="1.5"/>
<path d="M400.25 125.625L404.75 130.125L413.75 121.125" stroke="url(#paint4_linear_1384_46)" stroke-width="1.5" stroke-linecap="round" stroke-linejoin="round"/>
<path d="M168.095 107.625C167.061 107.625 166.037 107.829 165.081 108.224C164.126 108.62 163.258 109.2 162.527 109.932C161.795 110.663 161.215 111.531 160.82 112.486C160.424 113.442 160.22 114.466 160.22 115.5C160.22 116.534 160.424 117.558 160.82 118.514C161.215 119.469 161.795 120.337 162.527 121.068C163.258 121.8 164.126 122.38 165.081 122.776C166.037 123.171 167.061 123.375 168.095 123.375C170.184 123.375 172.187 122.545 173.664 121.068C175.14 119.592 175.97 117.589 175.97 115.5C175.97 113.411 175.14 111.408 173.664 109.932C172.187 108.455 170.184 107.625 168.095 107.625ZM162.47 115.5C162.47 114.008 163.063 112.577 164.118 111.523C165.172 110.468 166.603 109.875 168.095 109.875C169.587 109.875 171.018 110.468 172.073 111.523C173.127 112.577 173.72 114.008 173.72 115.5C173.72 116.992 173.127 118.423 172.073 119.477C171.018 120.532 169.587 121.125 168.095 121.125C166.603 121.125 165.172 120.532 164.118 119.477C163.063 118.423 162.47 116.992 162.47 115.5ZM160.621 128.433C161.521 128.136 162.628 128.422 163.838 129.04C165.155 129.72 166.613 130.081 168.095 130.094C169.823 130.094 171.279 129.587 172.352 129.04C173.563 128.422 174.67 128.136 175.57 128.433L177.73 129.142C177.87 129.19 178.02 129.21 178.168 129.2C178.317 129.19 178.462 129.151 178.595 129.085C178.729 129.018 178.847 128.926 178.945 128.813C179.042 128.701 179.116 128.57 179.163 128.428C179.209 128.287 179.227 128.138 179.215 127.989C179.204 127.841 179.163 127.696 179.095 127.564C179.027 127.431 178.933 127.313 178.819 127.217C178.705 127.121 178.574 127.049 178.432 127.004L176.272 126.296C174.472 125.701 172.654 126.358 171.328 127.036C170.329 127.554 169.221 127.831 168.095 127.844C166.968 127.834 165.86 127.556 164.862 127.034C163.537 126.359 161.721 125.701 159.919 126.296L157.759 127.004C156.507 127.411 155.378 128.127 154.477 129.087C153.576 130.047 152.932 131.219 152.606 132.494L152.59 132.555L151.677 139.161C151.346 141.546 152.622 143.999 155.173 144.606C157.761 145.223 161.953 145.875 168.095 145.875C169.468 145.874 170.746 145.843 171.929 145.785C172.227 145.77 172.507 145.638 172.708 145.417C172.908 145.196 173.012 144.904 172.998 144.606C172.983 144.308 172.851 144.028 172.63 143.827C172.409 143.627 172.117 143.523 171.819 143.537C170.578 143.597 169.337 143.626 168.095 143.625C162.11 143.625 158.096 142.99 155.695 142.417C154.474 142.124 153.704 140.925 153.904 139.469L154.802 132.989C155.279 131.189 156.652 129.736 158.463 129.142L160.621 128.433Z" fill="url(#paint5_linear_1384_46)"/>
<path d="M184.464 130.375C184.576 130.337 184.707 130.289 184.851 130.253C185.012 130.169 185.192 130.124 185.374 130.124C185.556 130.124 185.736 130.169 185.897 130.253C186.041 130.289 186.174 130.337 186.286 130.375L186.331 130.391L192.451 132.508L192.53 132.537C192.834 132.64 193.221 132.773 193.545 133.043C193.817 133.268 194.046 133.583 194.184 133.912C194.341 134.299 194.352 134.69 194.361 134.994V135.071C194.413 136.826 194.348 140.423 193.081 143.166C192.384 144.673 191.198 146.028 190.044 147.108C189.059 148.017 188.007 148.852 186.898 149.606L186.844 149.644C186.671 149.761 186.462 149.905 186.203 150.01C186.098 150.125 185.969 150.217 185.827 150.28C185.684 150.343 185.53 150.375 185.374 150.375C185.218 150.375 185.064 150.343 184.921 150.28C184.778 150.217 184.65 150.125 184.545 150.01C184.319 149.912 184.105 149.789 183.906 149.644L183.849 149.606C182.74 148.852 181.687 148.018 180.702 147.108C179.55 146.028 178.364 144.676 177.664 143.166C176.4 140.423 176.337 136.826 176.386 135.071V134.994C176.395 134.69 176.404 134.299 176.566 133.912C176.701 133.583 176.931 133.271 177.203 133.043C177.527 132.773 177.914 132.638 178.218 132.537L178.296 132.508L184.416 130.393L184.464 130.375ZM186.5 132.829V147.131C187.112 146.678 187.818 146.111 188.507 145.466C189.567 144.473 190.516 143.35 191.04 142.221C192.069 139.993 192.165 136.864 192.114 135.134L192.105 134.899L192.098 134.774C191.972 134.723 191.844 134.677 191.715 134.634L186.5 132.829ZM182.241 145.466C182.929 146.111 183.636 146.678 184.25 147.131V132.829L179.034 134.634C178.906 134.677 178.778 134.723 178.652 134.774L178.643 134.899L178.634 135.136C178.584 136.864 178.679 139.996 179.709 142.221C180.231 143.35 181.181 144.471 182.241 145.466Z" fill="url(#paint6_linear_1384_46)"/>
</g>
<defs>
<filter id="filter0_f_1384_46" x="66" y="25" width="206" height="206" filterUnits="userSpaceOnUse" color-interpolation-filters="sRGB">
<feFlood flood-opacity="0" result="BackgroundImageFix"/>
<feBlend mode="normal" in="SourceGraphic" in2="BackgroundImageFix" result="shape"/>
<feGaussianBlur stdDeviation="15.5" result="effect1_foregroundBlur_1384_46"/>
</filter>
<filter id="filter1_f_1384_46" x="307" y="25" width="206" height="206" filterUnits="userSpaceOnUse" color-interpolation-filters="sRGB">
<feFlood flood-opacity="0" result="BackgroundImageFix"/>
<feBlend mode="normal" in="SourceGraphic" in2="BackgroundImageFix" result="shape"/>
<feGaussianBlur stdDeviation="15.5" result="effect1_foregroundBlur_1384_46"/>
</filter>
<filter id="filter2_f_1384_46" x="105" y="-60" width="376" height="376" filterUnits="userSpaceOnUse" color-interpolation-filters="sRGB">
<feFlood flood-opacity="0" result="BackgroundImageFix"/>
<feBlend mode="normal" in="SourceGraphic" in2="BackgroundImageFix" result="shape"/>
<feGaussianBlur stdDeviation="33" result="effect1_foregroundBlur_1384_46"/>
</filter>
<linearGradient id="paint0_linear_1384_46" x1="293" y1="84.3571" x2="293" y2="171.643" gradientUnits="userSpaceOnUse">
<stop stop-color="#2570EC"/>
<stop offset="1" stop-color="#22CEEE"/>
</linearGradient>
<linearGradient id="paint1_linear_1384_46" x1="293" y1="84.3571" x2="293" y2="171.643" gradientUnits="userSpaceOnUse">
<stop stop-color="#2570EC"/>
<stop offset="1" stop-color="#22CEEE"/>
</linearGradient>
<linearGradient id="paint2_linear_1384_46" x1="407" y1="151.5" x2="407" y2="152.5" gradientUnits="userSpaceOnUse">
<stop stop-color="#2570EC"/>
<stop offset="1" stop-color="#22CEEE"/>
</linearGradient>
<linearGradient id="paint3_linear_1384_46" x1="407" y1="106.5" x2="407" y2="144.75" gradientUnits="userSpaceOnUse">
<stop stop-color="#2570EC"/>
<stop offset="1" stop-color="#22CEEE"/>
</linearGradient>
<linearGradient id="paint4_linear_1384_46" x1="407" y1="121.125" x2="407" y2="130.125" gradientUnits="userSpaceOnUse">
<stop stop-color="#2570EC"/>
<stop offset="1" stop-color="#22CEEE"/>
</linearGradient>
<linearGradient id="paint5_linear_1384_46" x1="165.422" y1="107.625" x2="165.422" y2="145.875" gradientUnits="userSpaceOnUse">
<stop stop-color="#2570EC"/>
<stop offset="1" stop-color="#22CEEE"/>
</linearGradient>
<linearGradient id="paint6_linear_1384_46" x1="185.374" y1="130.124" x2="185.374" y2="150.375" gradientUnits="userSpaceOnUse">
<stop stop-color="#2570EC"/>
<stop offset="1" stop-color="#22CEEE"/>
</linearGradient>
<clipPath id="clip0_1384_46">
<rect width="587" height="257" fill="white"/>
</clipPath>
</defs>
</svg>
