<svg width="587" height="257" viewBox="0 0 587 257" fill="none" xmlns="http://www.w3.org/2000/svg">
<g clip-path="url(#clip0_1388_114)">
<g filter="url(#filter0_f_1388_114)">
<circle cx="99" cy="98" r="72" fill="#1292EE" fill-opacity="0.09"/>
</g>
<g filter="url(#filter1_f_1388_114)">
<circle cx="480" cy="158" r="72" fill="#1292EE" fill-opacity="0.09"/>
</g>
<g filter="url(#filter2_f_1388_114)">
<circle cx="163" cy="132" r="122" fill="#12EEE7" fill-opacity="0.06"/>
</g>
<circle cx="293" cy="128" r="99.5" stroke="#22CEEE" stroke-opacity="0.06" stroke-linecap="round" stroke-dasharray="11 11"/>
<circle cx="293" cy="128" r="64.5" stroke="#1292EE" stroke-opacity="0.14" stroke-linecap="round" stroke-dasharray="11 11"/>
<path d="M414.179 110.333C415.757 112.888 416.667 115.896 416.667 119.115C416.667 128.384 409.12 135.899 399.813 135.899C398.117 135.899 394.251 135.509 392.371 133.947L390.019 136.288C388.059 138.24 389.627 138.24 390.411 139.8C390.411 139.8 392.371 142.533 390.411 145.267C389.235 146.827 385.941 149.011 382.181 145.267L381.397 146.045C381.397 146.045 383.747 148.779 381.789 151.512C380.613 153.072 377.477 154.632 374.733 151.901L371.992 154.632C370.109 156.507 367.811 155.413 366.899 154.632L364.544 152.291C362.349 150.104 363.629 147.736 364.544 146.824L384.923 126.531C384.923 126.531 382.963 123.411 382.963 119.117C382.963 109.848 390.509 102.333 399.816 102.333C402 102.333 404.085 102.747 406 103.499" stroke="url(#paint0_linear_1388_114)" stroke-width="1.5" stroke-linecap="round" stroke-linejoin="round"/>
<path d="M405.693 119.117C405.69 120.673 405.069 122.163 403.967 123.261C402.864 124.358 401.372 124.974 399.816 124.971C399.046 124.972 398.282 124.822 397.57 124.529C396.857 124.236 396.21 123.805 395.664 123.262C395.118 122.718 394.684 122.073 394.388 121.361C394.091 120.65 393.938 119.888 393.936 119.117C393.937 118.347 394.091 117.584 394.387 116.872C394.683 116.161 395.117 115.515 395.663 114.971C396.209 114.427 396.857 113.996 397.569 113.703C398.282 113.41 399.045 113.26 399.816 113.261C400.586 113.26 401.35 113.41 402.062 113.704C402.774 113.997 403.422 114.428 403.968 114.972C404.513 115.516 404.947 116.162 405.243 116.873C405.539 117.584 405.692 118.347 405.693 119.117Z" stroke="url(#paint1_linear_1388_114)" stroke-width="1.5"/>
<path d="M188 139.667C188 140.374 187.719 141.052 187.219 141.552C186.719 142.052 186.041 142.333 185.333 142.333C184.626 142.333 183.948 142.052 183.448 141.552C182.948 141.052 182.667 140.374 182.667 139.667C182.667 138.959 182.948 138.281 183.448 137.781C183.948 137.281 184.626 137 185.333 137C186.041 137 186.719 137.281 187.219 137.781C187.719 138.281 188 138.959 188 139.667ZM198.667 139.667C198.667 140.374 198.386 141.052 197.886 141.552C197.386 142.052 196.707 142.333 196 142.333C195.293 142.333 194.615 142.052 194.114 141.552C193.614 141.052 193.333 140.374 193.333 139.667C193.333 138.959 193.614 138.281 194.114 137.781C194.615 137.281 195.293 137 196 137C196.707 137 197.386 137.281 197.886 137.781C198.386 138.281 198.667 138.959 198.667 139.667ZM209.333 139.667C209.333 140.374 209.052 141.052 208.552 141.552C208.052 142.052 207.374 142.333 206.667 142.333C205.96 142.333 205.281 142.052 204.781 141.552C204.281 141.052 204 140.374 204 139.667C204 138.959 204.281 138.281 204.781 137.781C205.281 137.281 205.96 137 206.667 137C207.374 137 208.052 137.281 208.552 137.781C209.052 138.281 209.333 138.959 209.333 139.667Z" fill="url(#paint2_linear_1388_114)"/>
<path d="M180 123.667V118.333C180 117.425 180.074 116.536 180.221 115.667M212 123.667V118.333C212 115.083 211.011 111.91 209.163 109.237C207.315 106.563 204.697 104.515 201.657 103.366C198.617 102.217 195.299 102.021 192.145 102.804C188.991 103.587 186.15 105.312 184 107.749M193.333 155.667H185.333C177.792 155.667 174.019 155.667 171.677 153.323C169.333 150.981 169.333 147.208 169.333 139.667C169.333 132.125 169.333 128.352 171.677 126.011C174.019 123.667 177.792 123.667 185.333 123.667H206.667C214.208 123.667 217.981 123.667 220.323 126.011C222.667 128.352 222.667 132.125 222.667 139.667C222.667 147.208 222.667 150.981 220.323 153.323C217.981 155.667 214.208 155.667 206.667 155.667H204" stroke="url(#paint3_linear_1388_114)" stroke-width="1.5" stroke-linecap="round"/>
<path d="M294 143.92L280.542 136.461V121.541L294 114.08L307.458 121.541V136.461L294 143.92ZM289.56 125.621C290.106 124.947 290.765 124.418 291.536 124.035C292.308 123.652 293.129 123.459 294 123.458C294.871 123.457 295.692 123.649 296.464 124.035C297.235 124.42 297.894 124.948 298.44 125.62L304.955 121.994L294 115.895L283.043 121.994L289.56 125.621ZM293.208 141.66V134.527C291.845 134.279 290.712 133.639 289.81 132.605C288.909 131.572 288.458 130.37 288.458 129C288.458 128.649 288.487 128.317 288.544 128.006C288.601 127.694 288.689 127.376 288.808 127.051L282.125 123.306V135.514L293.208 141.66ZM294 132.958C295.115 132.958 296.053 132.577 296.815 131.815C297.577 131.053 297.958 130.115 297.958 129C297.958 127.885 297.577 126.947 296.815 126.185C296.053 125.423 295.115 125.042 294 125.042C292.885 125.042 291.947 125.423 291.185 126.185C290.423 126.947 290.042 127.885 290.042 129C290.042 130.115 290.423 131.053 291.185 131.815C291.947 132.577 292.885 132.958 294 132.958ZM294.792 141.66L305.875 135.514V123.306L299.192 127.051C299.311 127.376 299.399 127.694 299.456 128.006C299.513 128.317 299.542 128.649 299.542 129C299.542 130.37 299.091 131.572 298.189 132.605C297.288 133.639 296.155 134.279 294.792 134.527V141.66Z" fill="url(#paint4_linear_1388_114)"/>
</g>
<defs>
<filter id="filter0_f_1388_114" x="-4" y="-5" width="206" height="206" filterUnits="userSpaceOnUse" color-interpolation-filters="sRGB">
<feFlood flood-opacity="0" result="BackgroundImageFix"/>
<feBlend mode="normal" in="SourceGraphic" in2="BackgroundImageFix" result="shape"/>
<feGaussianBlur stdDeviation="15.5" result="effect1_foregroundBlur_1388_114"/>
</filter>
<filter id="filter1_f_1388_114" x="377" y="55" width="206" height="206" filterUnits="userSpaceOnUse" color-interpolation-filters="sRGB">
<feFlood flood-opacity="0" result="BackgroundImageFix"/>
<feBlend mode="normal" in="SourceGraphic" in2="BackgroundImageFix" result="shape"/>
<feGaussianBlur stdDeviation="15.5" result="effect1_foregroundBlur_1388_114"/>
</filter>
<filter id="filter2_f_1388_114" x="-25" y="-56" width="376" height="376" filterUnits="userSpaceOnUse" color-interpolation-filters="sRGB">
<feFlood flood-opacity="0" result="BackgroundImageFix"/>
<feBlend mode="normal" in="SourceGraphic" in2="BackgroundImageFix" result="shape"/>
<feGaussianBlur stdDeviation="33" result="effect1_foregroundBlur_1388_114"/>
</filter>
<linearGradient id="paint0_linear_1388_114" x1="389.999" y1="102.333" x2="389.999" y2="155.667" gradientUnits="userSpaceOnUse">
<stop stop-color="#2570EC"/>
<stop offset="1" stop-color="#22CEEE"/>
</linearGradient>
<linearGradient id="paint1_linear_1388_114" x1="399.815" y1="113.261" x2="399.815" y2="124.971" gradientUnits="userSpaceOnUse">
<stop stop-color="#2570EC"/>
<stop offset="1" stop-color="#22CEEE"/>
</linearGradient>
<linearGradient id="paint2_linear_1388_114" x1="196" y1="137" x2="196" y2="142.333" gradientUnits="userSpaceOnUse">
<stop stop-color="#2570EC"/>
<stop offset="1" stop-color="#22CEEE"/>
</linearGradient>
<linearGradient id="paint3_linear_1388_114" x1="196" y1="102.332" x2="196" y2="155.667" gradientUnits="userSpaceOnUse">
<stop stop-color="#2570EC"/>
<stop offset="1" stop-color="#22CEEE"/>
</linearGradient>
<linearGradient id="paint4_linear_1388_114" x1="294" y1="114.08" x2="294" y2="143.92" gradientUnits="userSpaceOnUse">
<stop stop-color="#2570EC"/>
<stop offset="1" stop-color="#22CEEE"/>
</linearGradient>
<clipPath id="clip0_1388_114">
<rect width="587" height="257" fill="white"/>
</clipPath>
</defs>
</svg>
