<svg width="587" height="257" viewBox="0 0 587 257" fill="none" xmlns="http://www.w3.org/2000/svg">
<g clip-path="url(#clip0_1389_154)">
<g filter="url(#filter0_f_1389_154)">
<circle cx="104" cy="97" r="72" fill="#1292EE" fill-opacity="0.09"/>
</g>
<g filter="url(#filter1_f_1389_154)">
<circle cx="480" cy="158" r="72" fill="#1292EE" fill-opacity="0.09"/>
</g>
<g filter="url(#filter2_f_1389_154)">
<circle cx="163" cy="122" r="122" fill="#12EEE7" fill-opacity="0.06"/>
</g>
<circle cx="293" cy="128" r="99.5" stroke="#22CEEE" stroke-opacity="0.06" stroke-linecap="round" stroke-dasharray="11 11"/>
<circle cx="293" cy="128" r="64.5" stroke="#1292EE" stroke-opacity="0.14" stroke-linecap="round" stroke-dasharray="11 11"/>
<g clip-path="url(#clip1_1389_154)">
<path d="M377.667 103.533C377.667 99.6133 377.667 97.6533 378.427 96.1553C379.099 94.837 380.17 93.7653 381.489 93.094C382.982 92.3333 384.942 92.3333 388.867 92.3333H410.361C412.074 92.3333 412.928 92.3333 413.735 92.5247C414.457 92.6989 415.131 92.9789 415.756 93.3647C416.465 93.7987 417.067 94.4053 418.276 95.614L435.053 112.386C436.266 113.599 436.873 114.206 437.302 114.906C437.688 115.541 437.968 116.216 438.142 116.931C438.333 117.739 438.333 118.593 438.333 120.305V160.467C438.333 164.387 438.333 166.347 437.573 167.845C436.901 169.163 435.83 170.235 434.511 170.906C433.018 171.667 431.058 171.667 427.133 171.667H388.867C384.947 171.667 382.987 171.667 381.489 170.906C380.17 170.235 379.099 169.163 378.427 167.845C377.667 166.351 377.667 164.391 377.667 160.467V103.533Z" stroke="url(#paint0_linear_1389_154)"/>
<path d="M410.333 92.3333V109.133C410.333 113.053 410.333 115.013 411.099 116.511C411.769 117.829 412.839 118.901 414.155 119.573C415.649 120.333 417.609 120.333 421.533 120.333H438.333" stroke="url(#paint1_linear_1389_154)"/>
<path d="M444.445 182.898L421.484 159.937C419.651 161.499 417.543 162.708 415.159 163.564C412.776 164.419 410.38 164.847 407.973 164.847C402.101 164.847 397.132 162.814 393.064 158.749C388.996 154.684 386.963 149.716 386.963 143.844C386.963 137.973 388.994 133.002 393.057 128.932C397.119 124.862 402.086 122.825 407.958 122.82C413.83 122.815 418.802 124.849 422.874 128.921C426.946 132.993 428.983 137.964 428.983 143.833C428.983 146.38 428.532 148.846 427.63 151.229C426.728 153.612 425.542 155.651 424.073 157.345L447.034 180.302L444.445 182.898ZM407.976 161.177C412.841 161.177 416.947 159.502 420.296 156.153C423.645 152.804 425.32 148.697 425.32 143.83C425.32 138.963 423.645 134.856 420.296 131.51C416.947 128.163 412.841 126.489 407.976 126.486C403.112 126.484 399.004 128.158 395.653 131.51C392.301 134.861 390.627 138.968 390.629 143.83C390.632 148.692 392.306 152.798 395.653 156.15C398.999 159.501 403.106 161.175 407.973 161.173" fill="url(#paint2_linear_1389_154)"/>
</g>
<path d="M317.083 115.617C317.083 112.397 317.083 110.787 317.708 109.556C318.26 108.473 319.14 107.593 320.223 107.041C321.449 106.417 323.059 106.417 326.283 106.417H343.94C345.346 106.417 346.048 106.417 346.711 106.574C347.304 106.717 347.857 106.947 348.371 107.264C348.954 107.62 349.448 108.119 350.441 109.111L364.222 122.888C365.218 123.885 365.717 124.383 366.069 124.958C366.386 125.48 366.616 126.034 366.759 126.622C366.917 127.285 366.917 127.987 366.917 129.394V162.383C366.917 165.603 366.917 167.213 366.292 168.444C365.74 169.527 364.86 170.407 363.777 170.958C362.55 171.583 360.94 171.583 357.717 171.583H326.283C323.063 171.583 321.453 171.583 320.223 170.958C319.14 170.407 318.26 169.527 317.708 168.444C317.083 167.217 317.083 165.607 317.083 162.383V115.617Z" stroke="url(#paint3_linear_1389_154)"/>
<path d="M343.917 106.417V120.217C343.917 123.437 343.917 125.047 344.545 126.277C345.096 127.359 345.975 128.24 347.056 128.792C348.283 129.417 349.893 129.417 353.117 129.417H366.917" stroke="url(#paint4_linear_1389_154)"/>
<path d="M264.417 125.683C264.417 123.023 264.417 121.693 264.933 120.677C265.388 119.782 266.116 119.055 267.01 118.6C268.024 118.083 269.354 118.083 272.017 118.083H286.602C287.765 118.083 288.344 118.083 288.892 118.213C289.382 118.331 289.839 118.521 290.263 118.783C290.744 119.078 291.153 119.489 291.973 120.31L303.357 131.691C304.181 132.514 304.592 132.926 304.884 133.401C305.145 133.831 305.335 134.289 305.454 134.775C305.583 135.323 305.583 135.902 305.583 137.064V164.317C305.583 166.977 305.583 168.307 305.067 169.323C304.612 170.218 303.884 170.945 302.99 171.401C301.977 171.917 300.647 171.917 297.983 171.917H272.017C269.357 171.917 268.027 171.917 267.01 171.401C266.116 170.945 265.388 170.218 264.933 169.323C264.417 168.31 264.417 166.98 264.417 164.317V125.683Z" stroke="url(#paint5_linear_1389_154)"/>
<path d="M286.583 118.083V129.483C286.583 132.143 286.583 133.473 287.103 134.49C287.557 135.384 288.283 136.111 289.177 136.567C290.19 137.083 291.52 137.083 294.183 137.083H305.583" stroke="url(#paint6_linear_1389_154)"/>
<path d="M221.833 137.767C221.833 135.807 221.833 134.827 222.214 134.078C222.549 133.419 223.085 132.883 223.744 132.547C224.491 132.167 225.471 132.167 227.433 132.167H238.181C239.037 132.167 239.464 132.167 239.868 132.262C240.229 132.349 240.565 132.489 240.878 132.682C241.233 132.899 241.534 133.203 242.138 133.807L250.526 142.193C251.133 142.8 251.436 143.103 251.651 143.453C251.844 143.77 251.984 144.108 252.071 144.466C252.167 144.869 252.167 145.296 252.167 146.153V166.233C252.167 168.193 252.167 169.173 251.786 169.922C251.451 170.581 250.915 171.117 250.256 171.453C249.509 171.833 248.529 171.833 246.567 171.833H227.433C225.473 171.833 224.493 171.833 223.744 171.453C223.085 171.117 222.549 170.581 222.214 169.922C221.833 169.176 221.833 168.196 221.833 166.233V137.767Z" stroke="url(#paint7_linear_1389_154)"/>
<path d="M238.167 132.167V140.567C238.167 142.527 238.167 143.507 238.549 144.256C238.884 144.914 239.419 145.45 240.078 145.786C240.824 146.167 241.804 146.167 243.767 146.167H252.167" stroke="url(#paint8_linear_1389_154)"/>
<path d="M189.708 148.342C189.708 147.012 189.708 146.347 189.966 145.838C190.194 145.391 190.558 145.028 191.005 144.8C191.512 144.542 192.177 144.542 193.508 144.542H200.801C201.382 144.542 201.672 144.542 201.946 144.607C202.191 144.666 202.419 144.761 202.631 144.892C202.872 145.039 203.076 145.245 203.486 145.655L209.179 151.345C209.59 151.757 209.796 151.963 209.942 152.2C210.073 152.416 210.168 152.645 210.227 152.887C210.292 153.161 210.292 153.451 210.292 154.032V167.658C210.292 168.988 210.292 169.653 210.034 170.162C209.806 170.609 209.442 170.972 208.995 171.2C208.488 171.458 207.823 171.458 206.492 171.458H193.508C192.178 171.458 191.513 171.458 191.005 171.2C190.558 170.972 190.194 170.609 189.966 170.162C189.708 169.655 189.708 168.99 189.708 167.658V148.342Z" stroke="url(#paint9_linear_1389_154)"/>
<path d="M200.792 144.542V150.242C200.792 151.572 200.792 152.237 201.051 152.745C201.279 153.192 201.642 153.556 202.088 153.784C202.595 154.042 203.26 154.042 204.592 154.042H210.292" stroke="url(#paint10_linear_1389_154)"/>
</g>
<defs>
<filter id="filter0_f_1389_154" x="1" y="-6" width="206" height="206" filterUnits="userSpaceOnUse" color-interpolation-filters="sRGB">
<feFlood flood-opacity="0" result="BackgroundImageFix"/>
<feBlend mode="normal" in="SourceGraphic" in2="BackgroundImageFix" result="shape"/>
<feGaussianBlur stdDeviation="15.5" result="effect1_foregroundBlur_1389_154"/>
</filter>
<filter id="filter1_f_1389_154" x="377" y="55" width="206" height="206" filterUnits="userSpaceOnUse" color-interpolation-filters="sRGB">
<feFlood flood-opacity="0" result="BackgroundImageFix"/>
<feBlend mode="normal" in="SourceGraphic" in2="BackgroundImageFix" result="shape"/>
<feGaussianBlur stdDeviation="15.5" result="effect1_foregroundBlur_1389_154"/>
</filter>
<filter id="filter2_f_1389_154" x="-25" y="-66" width="376" height="376" filterUnits="userSpaceOnUse" color-interpolation-filters="sRGB">
<feFlood flood-opacity="0" result="BackgroundImageFix"/>
<feBlend mode="normal" in="SourceGraphic" in2="BackgroundImageFix" result="shape"/>
<feGaussianBlur stdDeviation="33" result="effect1_foregroundBlur_1389_154"/>
</filter>
<linearGradient id="paint0_linear_1389_154" x1="408" y1="92.3333" x2="408" y2="171.667" gradientUnits="userSpaceOnUse">
<stop stop-color="#2570EC"/>
<stop offset="1" stop-color="#22CEEE"/>
</linearGradient>
<linearGradient id="paint1_linear_1389_154" x1="424.333" y1="92.3333" x2="424.333" y2="120.333" gradientUnits="userSpaceOnUse">
<stop stop-color="#2570EC"/>
<stop offset="1" stop-color="#22CEEE"/>
</linearGradient>
<linearGradient id="paint2_linear_1389_154" x1="416.998" y1="122.82" x2="416.998" y2="182.898" gradientUnits="userSpaceOnUse">
<stop stop-color="#2570EC"/>
<stop offset="1" stop-color="#22CEEE"/>
</linearGradient>
<linearGradient id="paint3_linear_1389_154" x1="342" y1="106.417" x2="342" y2="171.583" gradientUnits="userSpaceOnUse">
<stop stop-color="#2570EC"/>
<stop offset="1" stop-color="#22CEEE"/>
</linearGradient>
<linearGradient id="paint4_linear_1389_154" x1="355.417" y1="106.417" x2="355.417" y2="129.417" gradientUnits="userSpaceOnUse">
<stop stop-color="#2570EC"/>
<stop offset="1" stop-color="#22CEEE"/>
</linearGradient>
<linearGradient id="paint5_linear_1389_154" x1="285" y1="118.083" x2="285" y2="171.917" gradientUnits="userSpaceOnUse">
<stop stop-color="#2570EC"/>
<stop offset="1" stop-color="#22CEEE"/>
</linearGradient>
<linearGradient id="paint6_linear_1389_154" x1="296.083" y1="118.083" x2="296.083" y2="137.083" gradientUnits="userSpaceOnUse">
<stop stop-color="#2570EC"/>
<stop offset="1" stop-color="#22CEEE"/>
</linearGradient>
<linearGradient id="paint7_linear_1389_154" x1="237" y1="132.167" x2="237" y2="171.833" gradientUnits="userSpaceOnUse">
<stop stop-color="#2570EC"/>
<stop offset="1" stop-color="#22CEEE"/>
</linearGradient>
<linearGradient id="paint8_linear_1389_154" x1="245.167" y1="132.167" x2="245.167" y2="146.167" gradientUnits="userSpaceOnUse">
<stop stop-color="#2570EC"/>
<stop offset="1" stop-color="#22CEEE"/>
</linearGradient>
<linearGradient id="paint9_linear_1389_154" x1="200" y1="144.542" x2="200" y2="171.458" gradientUnits="userSpaceOnUse">
<stop stop-color="#2570EC"/>
<stop offset="1" stop-color="#22CEEE"/>
</linearGradient>
<linearGradient id="paint10_linear_1389_154" x1="205.542" y1="144.542" x2="205.542" y2="154.042" gradientUnits="userSpaceOnUse">
<stop stop-color="#2570EC"/>
<stop offset="1" stop-color="#22CEEE"/>
</linearGradient>
<clipPath id="clip0_1389_154">
<rect width="587" height="257" fill="white"/>
</clipPath>
<clipPath id="clip1_1389_154">
<rect width="112" height="112" fill="white" transform="translate(352 76)"/>
</clipPath>
</defs>
</svg>
