<svg width="587" height="257" viewBox="0 0 587 257" fill="none" xmlns="http://www.w3.org/2000/svg">
<g clip-path="url(#clip0_1384_2)">
<g filter="url(#filter0_f_1384_2)">
<circle cx="191" cy="128" r="72" fill="#1292EE" fill-opacity="0.09"/>
</g>
<g filter="url(#filter1_f_1384_2)">
<circle cx="340" cy="128" r="118" fill="#12EEE7" fill-opacity="0.06"/>
</g>
<circle cx="293" cy="128" r="98.5" stroke="#22CEEE" stroke-opacity="0.06" stroke-width="3" stroke-linecap="round" stroke-dasharray="11 11"/>
<circle cx="600" cy="269" r="124.5" stroke="#1292EE" stroke-opacity="0.14" stroke-linecap="round" stroke-dasharray="11 11"/>
<path d="M226.83 166.615L156.57 96.3523L159.078 93.8448L229.337 164.108L226.83 166.615ZM174.25 111.55L177.792 115.091V151.521H212.95L216.75 155.321V158.197C216.75 159.779 216.193 161.128 215.078 162.245C213.964 163.359 212.615 163.917 211.03 163.917H179.97C178.388 163.917 177.038 163.359 175.922 162.245C174.807 161.131 174.25 159.781 174.25 158.197V111.55ZM177.792 155.063V158.197C177.792 158.832 177.996 159.354 178.404 159.762C178.813 160.171 179.336 160.375 179.973 160.375H211.03C211.665 160.375 212.187 160.171 212.596 159.762C213.004 159.354 213.208 158.831 213.208 158.193V155.063H177.792ZM177.792 102.557V101.938H213.208V98.8031C213.208 98.168 213.004 97.6462 212.596 97.2377C212.187 96.8292 211.665 96.625 211.03 96.625H179.97C179.335 96.625 178.813 96.8292 178.404 97.2377C177.996 97.6462 177.792 98.1692 177.792 98.8067V102.557ZM177.792 102.557L174.374 99.1183V98.2329C174.509 96.7832 175.106 95.5625 176.166 94.5708C177.229 93.5792 178.498 93.0833 179.973 93.0833H211.03C212.659 93.0833 214.019 93.6299 215.11 94.7231C216.201 95.8163 216.748 97.1775 216.75 98.8067V110.519H213.208V105.479H180.646L177.792 102.557ZM215.673 137.234L213.127 134.684C214.062 133.898 214.823 132.974 215.411 131.914C216.002 130.854 216.297 129.716 216.297 128.5C216.297 127.284 216.002 126.145 215.411 125.082C214.821 124.02 214.06 123.098 213.127 122.316L215.677 119.766C216.942 120.9 217.952 122.211 218.705 123.701C219.458 125.191 219.836 126.791 219.838 128.5C219.841 130.209 219.463 131.809 218.705 133.299C217.947 134.789 216.937 136.103 215.673 137.234ZM223.26 144.82L220.756 142.313C222.585 140.483 223.99 138.377 224.97 135.994C225.952 133.609 226.444 131.111 226.444 128.5C226.444 125.889 225.952 123.391 224.97 121.006C223.988 118.621 222.583 116.515 220.756 114.688L223.263 112.18C225.435 114.343 227.099 116.831 228.253 119.646C229.408 122.46 229.985 125.412 229.985 128.5C229.985 131.588 229.408 134.54 228.253 137.354C227.099 140.169 225.434 142.657 223.26 144.82Z" fill="url(#paint0_linear_1384_2)"/>
<path d="M377 92.75C377 91.7554 377.395 90.8016 378.098 90.0983C378.802 89.3951 379.755 89 380.75 89C381.745 89 382.698 89.3951 383.402 90.0983C384.105 90.8016 384.5 91.7554 384.5 92.75C384.5 93.7446 384.105 94.6984 383.402 95.4016C382.698 96.1049 381.745 96.5 380.75 96.5C379.755 96.5 378.802 96.1049 378.098 95.4016C377.395 94.6984 377 93.7446 377 92.75ZM380.75 91.25C380.352 91.25 379.971 91.408 379.689 91.6893C379.408 91.9706 379.25 92.3522 379.25 92.75C379.25 93.1478 379.408 93.5294 379.689 93.8107C379.971 94.092 380.352 94.25 380.75 94.25C381.148 94.25 381.529 94.092 381.811 93.8107C382.092 93.5294 382.25 93.1478 382.25 92.75C382.25 92.3522 382.092 91.9706 381.811 91.6893C381.529 91.408 381.148 91.25 380.75 91.25ZM380.75 99.5C379.755 99.5 378.802 99.8951 378.098 100.598C377.395 101.302 377 102.255 377 103.25C377 104.245 377.395 105.198 378.098 105.902C378.802 106.605 379.755 107 380.75 107C381.745 107 382.698 106.605 383.402 105.902C384.105 105.198 384.5 104.245 384.5 103.25C384.5 102.255 384.105 101.302 383.402 100.598C382.698 99.8951 381.745 99.5 380.75 99.5ZM379.25 103.25C379.25 102.852 379.408 102.471 379.689 102.189C379.971 101.908 380.352 101.75 380.75 101.75C381.148 101.75 381.529 101.908 381.811 102.189C382.092 102.471 382.25 102.852 382.25 103.25C382.25 103.648 382.092 104.029 381.811 104.311C381.529 104.592 381.148 104.75 380.75 104.75C380.352 104.75 379.971 104.592 379.689 104.311C379.408 104.029 379.25 103.648 379.25 103.25ZM387.5 92.375C387.5 92.0766 387.619 91.7905 387.83 91.5795C388.04 91.3685 388.327 91.25 388.625 91.25H399.875C400.173 91.25 400.46 91.3685 400.67 91.5795C400.881 91.7905 401 92.0766 401 92.375C401 92.6734 400.881 92.9595 400.67 93.1705C400.46 93.3815 400.173 93.5 399.875 93.5H388.625C388.327 93.5 388.04 93.3815 387.83 93.1705C387.619 92.9595 387.5 92.6734 387.5 92.375ZM388.625 101.75C388.327 101.75 388.04 101.869 387.83 102.08C387.619 102.29 387.5 102.577 387.5 102.875C387.5 103.173 387.619 103.46 387.83 103.67C388.04 103.881 388.327 104 388.625 104H399.875C400.173 104 400.46 103.881 400.67 103.67C400.881 103.46 401 103.173 401 102.875C401 102.577 400.881 102.29 400.67 102.08C400.46 101.869 400.173 101.75 399.875 101.75H388.625ZM377 84.875C377 84.5766 377.119 84.2905 377.33 84.0795C377.54 83.8685 377.827 83.75 378.125 83.75H399.875C400.173 83.75 400.46 83.8685 400.67 84.0795C400.881 84.2905 401 84.5766 401 84.875C401 85.1734 400.881 85.4595 400.67 85.6705C400.46 85.8815 400.173 86 399.875 86H378.125C377.827 86 377.54 85.8815 377.33 85.6705C377.119 85.4595 377 85.1734 377 84.875ZM378.125 78.5C376.633 78.5 375.202 79.0926 374.148 80.1475C373.093 81.2024 372.5 82.6332 372.5 84.125V105.875C372.5 107.367 373.093 108.798 374.148 109.852C375.202 110.907 376.633 111.5 378.125 111.5H399.875C401.367 111.5 402.798 110.907 403.852 109.852C404.907 108.798 405.5 107.367 405.5 105.875V84.125C405.5 82.6332 404.907 81.2024 403.852 80.1475C402.798 79.0926 401.367 78.5 399.875 78.5H378.125ZM374.75 84.125C374.75 83.2299 375.106 82.3715 375.739 81.7385C376.371 81.1056 377.23 80.75 378.125 80.75H399.875C400.77 80.75 401.629 81.1056 402.261 81.7385C402.894 82.3715 403.25 83.2299 403.25 84.125V105.875C403.25 106.77 402.894 107.629 402.261 108.261C401.629 108.894 400.77 109.25 399.875 109.25H378.125C377.23 109.25 376.371 108.894 375.739 108.261C375.106 107.629 374.75 106.77 374.75 105.875V84.125Z" fill="url(#paint1_linear_1384_2)"/>
<path d="M300.286 226.179C300.286 225.373 300.606 224.601 301.175 224.032C301.744 223.463 302.516 223.143 303.321 223.143C304.127 223.143 304.899 223.463 305.468 224.032C306.037 224.601 306.357 225.373 306.357 226.179C306.357 226.984 306.037 227.756 305.468 228.325C304.899 228.894 304.127 229.214 303.321 229.214C302.516 229.214 301.744 228.894 301.175 228.325C300.606 227.756 300.286 226.984 300.286 226.179ZM303.321 224.964C302.999 224.964 302.691 225.092 302.463 225.32C302.235 225.548 302.107 225.857 302.107 226.179C302.107 226.501 302.235 226.809 302.463 227.037C302.691 227.265 302.999 227.393 303.321 227.393C303.644 227.393 303.952 227.265 304.18 227.037C304.408 226.809 304.536 226.501 304.536 226.179C304.536 225.857 304.408 225.548 304.18 225.32C303.952 225.092 303.644 224.964 303.321 224.964ZM303.321 231.643C302.516 231.643 301.744 231.963 301.175 232.532C300.606 233.101 300.286 233.873 300.286 234.679C300.286 235.484 300.606 236.256 301.175 236.825C301.744 237.394 302.516 237.714 303.321 237.714C304.127 237.714 304.899 237.394 305.468 236.825C306.037 236.256 306.357 235.484 306.357 234.679C306.357 233.873 306.037 233.101 305.468 232.532C304.899 231.963 304.127 231.643 303.321 231.643ZM302.107 234.679C302.107 234.357 302.235 234.048 302.463 233.82C302.691 233.592 302.999 233.464 303.321 233.464C303.644 233.464 303.952 233.592 304.18 233.82C304.408 234.048 304.536 234.357 304.536 234.679C304.536 235.001 304.408 235.309 304.18 235.537C303.952 235.765 303.644 235.893 303.321 235.893C302.999 235.893 302.691 235.765 302.463 235.537C302.235 235.309 302.107 235.001 302.107 234.679ZM308.786 225.875C308.786 225.633 308.882 225.402 309.052 225.231C309.223 225.06 309.455 224.964 309.696 224.964H318.804C319.045 224.964 319.277 225.06 319.448 225.231C319.618 225.402 319.714 225.633 319.714 225.875C319.714 226.117 319.618 226.348 319.448 226.519C319.277 226.69 319.045 226.786 318.804 226.786H309.696C309.455 226.786 309.223 226.69 309.052 226.519C308.882 226.348 308.786 226.117 308.786 225.875ZM309.696 233.464C309.455 233.464 309.223 233.56 309.052 233.731C308.882 233.902 308.786 234.133 308.786 234.375C308.786 234.617 308.882 234.848 309.052 235.019C309.223 235.19 309.455 235.286 309.696 235.286H318.804C319.045 235.286 319.277 235.19 319.448 235.019C319.618 234.848 319.714 234.617 319.714 234.375C319.714 234.133 319.618 233.902 319.448 233.731C319.277 233.56 319.045 233.464 318.804 233.464H309.696ZM300.286 219.804C300.286 219.562 300.382 219.33 300.552 219.16C300.723 218.989 300.955 218.893 301.196 218.893H318.804C319.045 218.893 319.277 218.989 319.448 219.16C319.618 219.33 319.714 219.562 319.714 219.804C319.714 220.045 319.618 220.277 319.448 220.448C319.277 220.618 319.045 220.714 318.804 220.714H301.196C300.955 220.714 300.723 220.618 300.552 220.448C300.382 220.277 300.286 220.045 300.286 219.804ZM301.196 214.643C299.989 214.643 298.831 215.123 297.977 215.977C297.123 216.831 296.643 217.989 296.643 219.196V236.804C296.643 238.011 297.123 239.169 297.977 240.023C298.831 240.877 299.989 241.357 301.196 241.357H318.804C320.011 241.357 321.17 240.877 322.023 240.023C322.877 239.169 323.357 238.011 323.357 236.804V219.196C323.357 217.989 322.877 216.831 322.023 215.977C321.17 215.123 320.011 214.643 318.804 214.643H301.196ZM298.464 219.196C298.464 218.472 298.752 217.777 299.265 217.265C299.777 216.752 300.472 216.464 301.196 216.464H318.804C319.528 216.464 320.223 216.752 320.736 217.265C321.248 217.777 321.536 218.472 321.536 219.196V236.804C321.536 237.528 321.248 238.223 320.736 238.735C320.223 239.248 319.528 239.536 318.804 239.536H301.196C300.472 239.536 299.777 239.248 299.265 238.735C298.752 238.223 298.464 237.528 298.464 236.804V219.196Z" fill="url(#paint2_linear_1384_2)"/>
<path d="M277.857 18.6786C277.857 17.3999 278.365 16.1735 279.269 15.2693C280.173 14.3651 281.4 13.8571 282.679 13.8571H301.321C302.6 13.8571 303.826 14.3651 304.731 15.2693C305.635 16.1735 306.143 17.3999 306.143 18.6786V24.1557C306.036 24.147 305.929 24.1427 305.821 24.1429H304.214V22.2143H279.786V37.3214C279.786 38.0887 280.09 38.8245 280.633 39.367C281.176 39.9095 281.911 40.2143 282.679 40.2143H288.143V41.8214C288.143 41.9294 288.147 42.0366 288.156 42.1429H282.679C281.4 42.1429 280.173 41.6349 279.269 40.7307C278.365 39.8265 277.857 38.6002 277.857 37.3214V18.6786ZM304.214 18.6786C304.214 17.9113 303.909 17.1755 303.367 16.633C302.824 16.0905 302.089 15.7857 301.321 15.7857H282.679C281.911 15.7857 281.176 16.0905 280.633 16.633C280.09 17.1755 279.786 17.9113 279.786 18.6786V20.2857H304.214V18.6786ZM297.786 33.7857V28.3214C297.786 27.5542 298.09 26.8184 298.633 26.2759C299.176 25.7334 299.911 25.4286 300.679 25.4286H305.821C306.589 25.4286 307.324 25.7334 307.867 26.2759C308.409 26.8184 308.714 27.5542 308.714 28.3214V40.5357C308.714 41.6439 308.274 42.7068 307.49 43.4904C306.707 44.274 305.644 44.7143 304.536 44.7143H292.321C291.554 44.7143 290.818 44.4095 290.276 43.867C289.733 43.3245 289.429 42.5887 289.429 41.8214V36.6786C289.429 35.9113 289.733 35.1755 290.276 34.633C290.818 34.0905 291.554 33.7857 292.321 33.7857H297.786ZM299.714 28.3214V33.7857H306.786V28.3214C306.786 28.0657 306.684 27.8204 306.503 27.6396C306.322 27.4587 306.077 27.3571 305.821 27.3571H300.679C300.423 27.3571 300.178 27.4587 299.997 27.6396C299.816 27.8204 299.714 28.0657 299.714 28.3214ZM306.786 35.7143H299.714V42.7857H304.536C305.132 42.7857 305.705 42.5487 306.127 42.1267C306.549 41.7048 306.786 41.1325 306.786 40.5357V35.7143ZM292.321 35.7143C292.066 35.7143 291.82 35.8159 291.64 35.9967C291.459 36.1776 291.357 36.4228 291.357 36.6786V41.8214C291.357 42.3537 291.789 42.7857 292.321 42.7857H297.786V35.7143H292.321Z" fill="url(#paint3_linear_1384_2)"/>
</g>
<defs>
<filter id="filter0_f_1384_2" x="88" y="25" width="206" height="206" filterUnits="userSpaceOnUse" color-interpolation-filters="sRGB">
<feFlood flood-opacity="0" result="BackgroundImageFix"/>
<feBlend mode="normal" in="SourceGraphic" in2="BackgroundImageFix" result="shape"/>
<feGaussianBlur stdDeviation="15.5" result="effect1_foregroundBlur_1384_2"/>
</filter>
<filter id="filter1_f_1384_2" x="156" y="-56" width="368" height="368" filterUnits="userSpaceOnUse" color-interpolation-filters="sRGB">
<feFlood flood-opacity="0" result="BackgroundImageFix"/>
<feBlend mode="normal" in="SourceGraphic" in2="BackgroundImageFix" result="shape"/>
<feGaussianBlur stdDeviation="33" result="effect1_foregroundBlur_1384_2"/>
</filter>
<linearGradient id="paint0_linear_1384_2" x1="193.278" y1="93.0833" x2="193.278" y2="166.615" gradientUnits="userSpaceOnUse">
<stop stop-color="#2570EC"/>
<stop offset="1" stop-color="#22CEEE"/>
</linearGradient>
<linearGradient id="paint1_linear_1384_2" x1="389" y1="78.5" x2="389" y2="111.5" gradientUnits="userSpaceOnUse">
<stop stop-color="#22CEEE"/>
<stop offset="1" stop-color="#2570EC"/>
</linearGradient>
<linearGradient id="paint2_linear_1384_2" x1="310" y1="214.643" x2="310" y2="241.357" gradientUnits="userSpaceOnUse">
<stop stop-color="#22CEEE"/>
<stop offset="1" stop-color="#2570EC"/>
</linearGradient>
<linearGradient id="paint3_linear_1384_2" x1="293.286" y1="13.8571" x2="293.286" y2="44.7143" gradientUnits="userSpaceOnUse">
<stop stop-color="#2570EC"/>
<stop offset="1" stop-color="#22CEEE"/>
</linearGradient>
<clipPath id="clip0_1384_2">
<rect width="587" height="257" fill="white"/>
</clipPath>
</defs>
</svg>
